<?xml version="1.0" encoding="utf-8"?>
<!-- Generator: Adobe Illustrator 18.1.1, SVG Export Plug-In . SVG Version: 6.00 Build 0)  -->
<svg version="1.1" id="Laag_3" xmlns="http://www.w3.org/2000/svg" xmlns:xlink="http://www.w3.org/1999/xlink" x="0px" y="0px"
	 viewBox="0 0 578.4 118.8" enable-background="new 0 0 578.4 118.8" xml:space="preserve">
<g>
	<g>
		<g>
			<g>
				<g>
					<linearGradient id="SVGID_1_" gradientUnits="userSpaceOnUse" x1="100.5153" y1="102.8954" x2="35.1937" y2="-15.5">
						<stop  offset="0" style="stop-color:#EEEDED"/>
						<stop  offset="1" style="stop-color:#FFFFFF"/>
					</linearGradient>
					<circle fill="url(#SVGID_1_)" cx="76.5" cy="59.4" r="59.4"/>
				</g>
			</g>
		</g>
		<g>
			<path fill="#00366F" d="M45.8,84.9l-2.9,2.2l-3.6-1.1c0,0-1.5-1.6-2.1-1.1c-0.6,0.5-2.8,1.5-2.8,1.5s-1.3,2-0.8,2.6
				c0.6,0.6,1.7,2.3,1.7,2.3l3.2-1.2h2.1c0,1,2.1,3.1,2.1,3.1l6.1-4.6l2.1-1.7h-3.6L45.8,84.9z"/>
			<polygon fill="#00366F" points="65.7,26.9 63.5,24.8 61.9,26.7 61.2,29.8 61.2,31.7 63.3,31.7 			"/>
			<path fill="#00366F" d="M68.8,19.7c0,0,0,0-0.6-0.2c-0.6-0.2-1.5,0.8-2.5,0.8c-1,0-1,2.1-1,2.1l-1.3,1h2.3L68.8,19.7z"/>
			<path fill="#00366F" d="M77.5,16.3l0.8-1.1h-2.4l-1.9,2.2l-3.4,0.3v1.9c0,0,3-0.6,3.4-0.9C74.3,18.2,77.5,16.3,77.5,16.3z"/>
			<path fill="#00366F" d="M80.8,17.3c0.4,0.3,2.5,0,2.5,0s0.6-0.8,1.1-1c0.6-0.2,1.9,0,1.9,0v-1.2h-2.8h-1.5h-1.1
				C80.8,15.1,80.4,17,80.8,17.3z"/>
			<path fill="#00366F" d="M90.6,16.3c0.6-0.2,1.9-1.2,1.9-1.2h1.7v-1.7h-2.7c0,0-2.5-0.9-2.5,0c0,1-0.2,2.7,0,2.9
				C89.3,16.5,90.1,16.5,90.6,16.3z"/>
			<path fill="#00366F" d="M112.5,24.8l-2.1-2.7l-4.6-2.7l-2.5-4.4l-12,2.5h-5.3l-4.2,3l-6,1.7v2.9l-1.8,2.9l1.8,3.6l-1.8,3.4
				l1.8,1.4l5.1,1.1l-1.5,2.1v3.4l-0.6,3.6l-2.1,0.7l-2.9-0.7c0,0-2.9-3.9-3.2-4.5c-0.4-0.6,0-3.6,0-3.6l-1.5-3.6l-1.5-2.1l-2.1,2.8
				l-0.8-2.8h-1.5l-2.7,1.3l-2.1,8l0.4,5.5l-0.4,0.7l-1.7,3.2l-1.5,5.9l-5.9,7.8l-2.3-0.2l-0.4,0.6l-0.6,1l0.2,1.7l1.7,1
				c0,0,2.9,2.1,2.3,1.9c-0.6-0.2-3.6-1-3.6-1l-1.1,1.3l1.5,1.7l7.2,3.2L50.7,76l-4.9-1.9l-2.3-1.1l-1.9,0.6l-2.3,0.9l2.3,1l4.8,1.7
				l1,2.3l2.5,1.1L48,82.1l-3.2-0.8L42.5,79l-5.3-1l-1.9,1.7l2.7,3.4l2.5,0.8l2.5,2.3l4.2-1.9l3.4,0.6l1.9,2.1l3-0.6l-1.3-3l2.7-0.6
				v1.3l3.6,0.4v-2.1l1.7-0.9V84l2.3,1.1l3.8-1.5v2.5l4.9,4.1h5.1l2.3,2.9l1.7,3.8l-3.8,5.7l4.9,4.8h3.8l1.3-2.1l-1-4.9h-2.3
				l0.4-1.7l3.4-2.5c0,0,0.2-1.9,0.4-2.5c0.2-0.6,0.8-2.9,0.6-3.5c-0.2-0.6,1.1-2,1.1-2l2.1-4.2c0,0-2.8-3.4-3.4-4
				c-0.6-0.6,0.6-3.8,0.6-3.8h-2.7l-0.6-4l2.9-0.9l2.5-1.5l3.8,2.5l4.4-2.7h2.5l1.3-3.8l-0.1-0.2l-1.4-2.1l1.5-2.3l3.4-2.7l-0.4-6.6
				l-3.8-2.3l-0.6-1.2l-1.2-2.5l3-2.7l4.4-1.1l0.2-5.4l1.7-1l1.1-4.6l-1.3-3.8L112.5,24.8z"/>
		</g>
		<g>
			<g>
				<path fill="#0090D3" d="M45.4,84.2l-2.9,2.2l-3.6-1.1c0,0-1.5-1.6-2.1-1.1c-0.6,0.5-2.9,1.5-2.9,1.5s-1.3,2-0.8,2.6
					c0.6,0.6,1.7,2.3,1.7,2.3l3.2-1.2h2.1c0,1,2.1,3.1,2.1,3.1l6.1-4.6l2.1-1.7h-3.6L45.4,84.2z"/>
				<polygon fill="#0090D3" points="65.4,26.2 63.1,24.1 61.6,26 60.8,29 60.8,30.9 62.9,30.9 				"/>
				<path fill="#0090D3" d="M68.4,19c0,0,0,0-0.6-0.2c-0.6-0.2-1.5,0.8-2.5,0.8c-1,0-1,2.1-1,2.1l-1.3,1h2.3L68.4,19z"/>
				<path fill="#0090D3" d="M77.2,15.5l0.8-1.1h-2.4l-1.9,2.2l-3.4,0.3v1.9c0,0,3-0.6,3.4-0.9C73.9,17.4,77.2,15.5,77.2,15.5z"/>
				<path fill="#0090D3" d="M80.4,16.6c0.4,0.3,2.5,0,2.5,0s0.6-0.8,1.1-1c0.6-0.2,1.9,0,1.9,0v-1.2h-2.8h-1.5h-1.1
					C80.4,14.4,80,16.3,80.4,16.6z"/>
				<path fill="#0090D3" d="M90.3,15.5c0.6-0.2,1.9-1.2,1.9-1.2h1.7v-1.7h-2.7c0,0-2.5-1-2.5,0c0,1-0.2,2.7,0,2.9
					C88.9,15.7,89.7,15.8,90.3,15.5z"/>
				<path fill="#0090D3" d="M112.1,24.1l-2.1-2.7l-4.6-2.7l-2.5-4.4l-12,2.5h-5.3l-4.2,3l-6,1.7v2.9l-1.8,2.9l1.8,3.6l-1.8,3.4
					l1.8,1.4l5.1,1.1l-1.5,2.1v3.4l-0.6,3.5l-2.1,0.7l-2.9-0.7c0,0-2.9-3.9-3.2-4.5c-0.4-0.6,0-3.6,0-3.6l-1.5-3.6l-1.5-2.1
					l-2.1,2.8l-0.8-2.8h-1.5l-2.7,1.3l-2.1,8l0.4,5.5l-0.4,0.7l-1.7,3.2l-1.5,5.9L49,64.4l-2.3-0.2l-0.4,0.6l-0.6,1l0.2,1.7l1.7,0.9
					c0,0,2.9,2.1,2.3,1.9c-0.6-0.2-3.6-1-3.6-1l-1.1,1.3l1.5,1.7l7.2,3.2l-3.6-0.4l-4.9-1.9l-2.3-1.1l-1.9,0.6l-2.3,1l2.3,0.9
					l4.8,1.7l0.9,2.3l2.5,1.1l-1.7,1.5l-3.2-0.8l-2.3-2.3l-5.3-1L34.9,79l2.7,3.4l2.5,0.8l2.5,2.3l4.2-1.9l3.4,0.6l1.9,2.1l3-0.6
					l-1.3-3l2.7-0.6v1.3l3.6,0.4v-2.1l1.7-1v2.5l2.3,1.1l3.8-1.5v2.5l4.9,4.1h5.1l2.3,2.9l1.7,3.8l-3.8,5.7l4.9,4.8h3.8l1.3-2.1
					l-0.9-4.9H85l0.4-1.7l3.4-2.5c0,0,0.2-1.9,0.4-2.5c0.2-0.6,0.8-2.9,0.6-3.5c-0.2-0.6,1.1-2,1.1-2l2.1-4.2c0,0-2.9-3.4-3.4-4
					c-0.6-0.6,0.6-3.8,0.6-3.8h-2.7l-0.6-4l2.9-1l2.5-1.5l3.8,2.5l4.4-2.7h2.5l1.3-3.8l-0.1-0.2l-1.4-2.1l1.5-2.3l3.4-2.7l-0.4-6.6
					l-3.8-2.3l-0.6-1.2l-1.2-2.5l3-2.7l4.4-1.1l0.2-5.4l1.7-1l1.1-4.6l-1.3-3.8L112.1,24.1z"/>
			</g>
		</g>
		<g>
			<linearGradient id="SVGID_2_" gradientUnits="userSpaceOnUse" x1="0" y1="45.319" x2="32.2637" y2="45.319">
				<stop  offset="0" style="stop-color:#EF7911"/>
				<stop  offset="0.2235" style="stop-color:#EF7C0F"/>
				<stop  offset="0.4001" style="stop-color:#F1840B"/>
				<stop  offset="0.5606" style="stop-color:#F39202"/>
				<stop  offset="0.7117" style="stop-color:#F7A400"/>
				<stop  offset="0.8558" style="stop-color:#FCBB00"/>
				<stop  offset="0.9935" style="stop-color:#FFD500"/>
				<stop  offset="1" style="stop-color:#FFD600"/>
			</linearGradient>
			<path fill="url(#SVGID_2_)" d="M20.5,47.8l-1.6,2.3C6.5,42,0,32.4,3.6,26.5c-0.5,0.6-0.9,1.2-1.3,1.8c-5.4,8.7-1,20.1,10.1,31.2
				l-3.2,4.6l11.5-0.6l11.5-0.6l-5.9-7.5L20.5,47.8z"/>
		</g>
		<g>
			<linearGradient id="SVGID_3_" gradientUnits="userSpaceOnUse" x1="61.0085" y1="78.0984" x2="146.5249" y2="78.5433">
				<stop  offset="0" style="stop-color:#EF7911"/>
				<stop  offset="0.2235" style="stop-color:#EF7C0F"/>
				<stop  offset="0.4001" style="stop-color:#F1840B"/>
				<stop  offset="0.5606" style="stop-color:#F39202"/>
				<stop  offset="0.7117" style="stop-color:#F7A400"/>
				<stop  offset="0.8558" style="stop-color:#FCBB00"/>
				<stop  offset="0.9935" style="stop-color:#FFD500"/>
				<stop  offset="1" style="stop-color:#FFD600"/>
			</linearGradient>
			<path fill="url(#SVGID_3_)" d="M144.3,75.5c0,0.1-0.1,0.3-0.1,0.4c-3.6,11-35.4,11.9-71.1,1.9c-12.7-3.6-24.2-8-33.6-12.8
				c8.6,7.9,24.1,15.7,42.7,21c30.9,8.6,58.9,6.7,62.4-4.3C145.4,79.7,145.2,77.6,144.3,75.5z"/>
		</g>
		<g>
			<linearGradient id="SVGID_4_" gradientUnits="userSpaceOnUse" x1="60.8959" y1="99.7494" x2="146.4122" y2="100.1944">
				<stop  offset="0" style="stop-color:#EF7911"/>
				<stop  offset="0.2235" style="stop-color:#EF7C0F"/>
				<stop  offset="0.4001" style="stop-color:#F1840B"/>
				<stop  offset="0.5606" style="stop-color:#F39202"/>
				<stop  offset="0.7117" style="stop-color:#F7A400"/>
				<stop  offset="0.8558" style="stop-color:#FCBB00"/>
				<stop  offset="0.9935" style="stop-color:#FFD500"/>
				<stop  offset="1" style="stop-color:#FFD600"/>
			</linearGradient>
			<path fill="url(#SVGID_4_)" d="M99.5,99.9C92.9,99,86.9,97.7,81.9,96c4.8,3.3,13.1,6.1,22.7,7.3c15.3,2,28.6-0.7,30.5-6
				C130.5,101.1,115.3,101.9,99.5,99.9z"/>
		</g>
		<g>
			<linearGradient id="SVGID_5_" gradientUnits="userSpaceOnUse" x1="-16.0363" y1="16.6409" x2="50.4347" y2="10.1028">
				<stop  offset="0" style="stop-color:#FFD600"/>
				<stop  offset="6.539702e-03" style="stop-color:#FFD500"/>
				<stop  offset="0.1442" style="stop-color:#FCBB00"/>
				<stop  offset="0.2883" style="stop-color:#F7A400"/>
				<stop  offset="0.4394" style="stop-color:#F39202"/>
				<stop  offset="0.5999" style="stop-color:#F1840B"/>
				<stop  offset="0.7765" style="stop-color:#EF7C0F"/>
				<stop  offset="1" style="stop-color:#EF7911"/>
			</linearGradient>
			<path fill="url(#SVGID_5_)" d="M11.1,17.4C17,13,27.9,11,41.7,11.3c1.9-1.4,3.9-2.6,5.9-3.8C29.7,7.6,16.1,11.1,11.1,17.4z"/>
		</g>
		<g>
			<linearGradient id="SVGID_6_" gradientUnits="userSpaceOnUse" x1="-13.3036" y1="27.8867" x2="43.686" y2="22.2812">
				<stop  offset="0" style="stop-color:#FFD600"/>
				<stop  offset="6.539702e-03" style="stop-color:#FFD500"/>
				<stop  offset="0.1442" style="stop-color:#FCBB00"/>
				<stop  offset="0.2883" style="stop-color:#F7A400"/>
				<stop  offset="0.4394" style="stop-color:#F39202"/>
				<stop  offset="0.5999" style="stop-color:#F1840B"/>
				<stop  offset="0.7765" style="stop-color:#EF7C0F"/>
				<stop  offset="1" style="stop-color:#EF7911"/>
			</linearGradient>
			<path fill="url(#SVGID_6_)" d="M36.9,15.1C19.2,16,6.8,20.6,4.8,28.2C4.3,30.1,4.5,32,5.2,34c4.2-3.7,11.9-6.3,21.8-7.4
				C29.8,22.3,33.2,18.5,36.9,15.1z"/>
		</g>
	</g>
	<g>
		<linearGradient id="SVGID_7_" gradientUnits="userSpaceOnUse" x1="172.93" y1="67.285" x2="172.93" y2="3.2424">
			<stop  offset="0" style="stop-color:#EF7911"/>
			<stop  offset="0.2235" style="stop-color:#EF7C0F"/>
			<stop  offset="0.4001" style="stop-color:#F1840B"/>
			<stop  offset="0.5606" style="stop-color:#F39202"/>
			<stop  offset="0.7117" style="stop-color:#F7A400"/>
			<stop  offset="0.8558" style="stop-color:#FCBB00"/>
			<stop  offset="0.9935" style="stop-color:#FFD500"/>
			<stop  offset="1" style="stop-color:#FFD600"/>
		</linearGradient>
		<path fill="url(#SVGID_7_)" d="M171.3,58.9c-3.5,0-7.3-0.3-9.1-0.6c-0.8-0.1-1.2-0.5-1.2-1.5V28.6c0-1,0.4-1.4,1.2-1.5
			c1.7-0.3,5.5-0.6,9.1-0.6c8.5,0,13.6,4.5,13.6,13.5v5.5C184.9,54.4,179.8,58.9,171.3,58.9z M177.6,39.9c0-5.8-2.5-7.3-6.3-7.3
			c-1.1,0-2.4,0-3,0.1v19.9c0.6,0,2,0.1,3,0.1c3.8,0,6.3-1.5,6.3-7.3V39.9z"/>
		<linearGradient id="SVGID_8_" gradientUnits="userSpaceOnUse" x1="200.1084" y1="67.2845" x2="200.1084" y2="3.2408">
			<stop  offset="0" style="stop-color:#EF7911"/>
			<stop  offset="0.2235" style="stop-color:#EF7C0F"/>
			<stop  offset="0.4001" style="stop-color:#F1840B"/>
			<stop  offset="0.5606" style="stop-color:#F39202"/>
			<stop  offset="0.7117" style="stop-color:#F7A400"/>
			<stop  offset="0.8558" style="stop-color:#FCBB00"/>
			<stop  offset="0.9935" style="stop-color:#FFD500"/>
			<stop  offset="1" style="stop-color:#FFD600"/>
		</linearGradient>
		<path fill="url(#SVGID_8_)" d="M209.7,58.5H205c-0.5,0-0.9-0.4-0.9-0.9v-1c-2.3,1.7-4.2,2.2-7,2.2c-6.2,0-7.5-4.3-7.5-9.7V35
			c0-0.5,0.4-0.9,0.9-0.9h5.2c0.5,0,0.9,0.4,0.9,0.9v14.2c0,3,0.6,4,3.2,4c1.2,0,2.6-0.6,4-1.4V35c0-0.5,0.4-0.9,0.9-0.9h5.2
			c0.5,0,0.9,0.4,0.9,0.9v22.7C210.6,58.2,210.2,58.5,209.7,58.5z"/>
		<linearGradient id="SVGID_9_" gradientUnits="userSpaceOnUse" x1="221.9577" y1="67.2852" x2="221.9577" y2="3.2407">
			<stop  offset="0" style="stop-color:#EF7911"/>
			<stop  offset="0.2235" style="stop-color:#EF7C0F"/>
			<stop  offset="0.4001" style="stop-color:#F1840B"/>
			<stop  offset="0.5606" style="stop-color:#F39202"/>
			<stop  offset="0.7117" style="stop-color:#F7A400"/>
			<stop  offset="0.8558" style="stop-color:#FCBB00"/>
			<stop  offset="0.9935" style="stop-color:#FFD500"/>
			<stop  offset="1" style="stop-color:#FFD600"/>
		</linearGradient>
		<path fill="url(#SVGID_9_)" d="M229,58.6c-1.3,0.2-2.1,0.3-3.4,0.3c-4.7,0-7.2-1.2-7.2-7.3V39.3l-3.4-0.6
			c-0.5-0.1-0.9-0.4-0.9-0.9V35c0-0.5,0.4-0.9,0.9-0.9h3.4v-3.5c0-0.5,0.4-0.8,0.9-0.9l5.2-0.9c0,0,0.1,0,0.1,0
			c0.4,0,0.8,0.3,0.8,0.7v4.5h3.5c0.5,0,0.9,0.4,0.9,0.9v3.5c0,0.5-0.4,0.9-0.9,0.9h-3.5v12.4c0,1.7,0.1,2,1.4,2h2.1
			c0.6,0,0.9,0.3,0.9,0.7v3.3C229.8,58.2,229.5,58.5,229,58.6z"/>
		<linearGradient id="SVGID_10_" gradientUnits="userSpaceOnUse" x1="241.2713" y1="67.2854" x2="241.2713" y2="3.2399">
			<stop  offset="0" style="stop-color:#EF7911"/>
			<stop  offset="0.2235" style="stop-color:#EF7C0F"/>
			<stop  offset="0.4001" style="stop-color:#F1840B"/>
			<stop  offset="0.5606" style="stop-color:#F39202"/>
			<stop  offset="0.7117" style="stop-color:#F7A400"/>
			<stop  offset="0.8558" style="stop-color:#FCBB00"/>
			<stop  offset="0.9935" style="stop-color:#FFD500"/>
			<stop  offset="1" style="stop-color:#FFD600"/>
		</linearGradient>
		<path fill="url(#SVGID_10_)" d="M248.6,58.3c-1.2,0.3-3.1,0.6-5.7,0.6c-6,0-9.9-3.8-9.9-10.8v-3.6c0-7,3.9-10.8,9.9-10.8
			c2.6,0,4.5,0.3,5.7,0.6c0.6,0.2,0.9,0.3,0.9,1v3.8c0,0.4-0.4,0.7-0.8,0.7c0,0,0,0-0.1,0c-1.6-0.2-2.8-0.3-5.2-0.3
			c-1.9,0-3.5,1.2-3.5,4.9v3.6c0,3.8,1.6,4.9,3.5,4.9c2.4,0,3.6-0.1,5.2-0.3c0,0,0.1,0,0.1,0c0.4,0,0.8,0.3,0.8,0.7v3.8
			C249.5,57.9,249.3,58.1,248.6,58.3z"/>
		<linearGradient id="SVGID_11_" gradientUnits="userSpaceOnUse" x1="264.3577" y1="67.2862" x2="264.3577" y2="3.2407">
			<stop  offset="0" style="stop-color:#EF7911"/>
			<stop  offset="0.2235" style="stop-color:#EF7C0F"/>
			<stop  offset="0.4001" style="stop-color:#F1840B"/>
			<stop  offset="0.5606" style="stop-color:#F39202"/>
			<stop  offset="0.7117" style="stop-color:#F7A400"/>
			<stop  offset="0.8558" style="stop-color:#FCBB00"/>
			<stop  offset="0.9935" style="stop-color:#FFD500"/>
			<stop  offset="1" style="stop-color:#FFD600"/>
		</linearGradient>
		<path fill="url(#SVGID_11_)" d="M274,58.5h-5.2c-0.5,0-0.9-0.4-0.9-0.9V43.4c0-3-0.6-4-3.2-4c-1.2,0-2.6,0.6-4,1.4v16.8
			c0,0.5-0.4,0.9-0.9,0.9h-5.2c-0.5,0-0.9-0.4-0.9-0.9v-31c0-0.5,0.4-0.9,0.9-0.9h5.2c0.5,0,0.9,0.4,0.9,0.9v9
			c2.2-1.4,4-1.9,6.5-1.9c6.2,0,7.5,4.3,7.5,9.7v14.2C274.8,58.1,274.4,58.5,274,58.5z"/>
		<linearGradient id="SVGID_12_" gradientUnits="userSpaceOnUse" x1="296.6719" y1="66.0432" x2="296.6719" y2="-4.0587">
			<stop  offset="0" style="stop-color:#EEEFEE"/>
			<stop  offset="1" style="stop-color:#FFFFFF"/>
		</linearGradient>
		<path fill="url(#SVGID_12_)" d="M308.4,58.5h-5.6c-0.5,0-0.9-0.4-0.9-0.9V45.4h-10.5v12.3c0,0.5-0.4,0.9-0.9,0.9H285
			c-0.5,0-0.9-0.4-0.9-0.9v-30c0-0.5,0.4-0.8,0.9-0.8h5.6c0.5,0,0.9,0.3,0.9,0.8V39h10.5V27.7c0-0.5,0.4-0.8,0.9-0.8h5.6
			c0.5,0,0.9,0.3,0.9,0.8v30C309.2,58.2,308.8,58.5,308.4,58.5z"/>
		<linearGradient id="SVGID_13_" gradientUnits="userSpaceOnUse" x1="324.7676" y1="66.0423" x2="324.7676" y2="-4.0594">
			<stop  offset="0" style="stop-color:#EEEFEE"/>
			<stop  offset="1" style="stop-color:#FFFFFF"/>
		</linearGradient>
		<path fill="url(#SVGID_13_)" d="M324.8,58.9c-6.9,0-10.7-4.3-10.7-11.1v-3c0-6.8,3.8-11.1,10.7-11.1c6.9,0,10.7,4.3,10.7,11.1v3
			C335.4,54.6,331.7,58.9,324.8,58.9z M328.6,44.9c0-3.5-1.3-5.2-3.8-5.2c-2.5,0-3.8,1.7-3.8,5.2v3c0,3.5,1.4,5.2,3.8,5.2
			c2.5,0,3.8-1.8,3.8-5.2V44.9z"/>
		<linearGradient id="SVGID_14_" gradientUnits="userSpaceOnUse" x1="343.335" y1="66.0431" x2="343.335" y2="-4.0586">
			<stop  offset="0" style="stop-color:#EEEFEE"/>
			<stop  offset="1" style="stop-color:#FFFFFF"/>
		</linearGradient>
		<path fill="url(#SVGID_14_)" d="M346,58.5h-5.2c-0.5,0-0.9-0.4-0.9-0.9v-31c0-0.5,0.4-0.9,0.9-0.9h5.2c0.5,0,0.8,0.4,0.8,0.9v31
			C346.8,58.1,346.4,58.5,346,58.5z"/>
		<linearGradient id="SVGID_15_" gradientUnits="userSpaceOnUse" x1="355.5244" y1="66.0432" x2="355.5244" y2="-4.0594">
			<stop  offset="0" style="stop-color:#EEEFEE"/>
			<stop  offset="1" style="stop-color:#FFFFFF"/>
		</linearGradient>
		<path fill="url(#SVGID_15_)" d="M358.3,31.3h-5.5c-0.5,0-0.9-0.4-0.9-0.9v-4c0-0.5,0.4-0.9,0.9-0.9h5.5c0.5,0,0.9,0.4,0.9,0.9v4
			C359.2,31,358.8,31.3,358.3,31.3z M358.1,58.5h-5.2c-0.5,0-0.9-0.4-0.9-0.9V35c0-0.5,0.4-0.9,0.9-0.9h5.2c0.5,0,0.9,0.4,0.9,0.9
			v22.7C359,58.2,358.6,58.5,358.1,58.5z"/>
		<linearGradient id="SVGID_16_" gradientUnits="userSpaceOnUse" x1="374.0508" y1="66.0421" x2="374.0508" y2="-4.0578">
			<stop  offset="0" style="stop-color:#EEEFEE"/>
			<stop  offset="1" style="stop-color:#FFFFFF"/>
		</linearGradient>
		<path fill="url(#SVGID_16_)" d="M383.3,57.8c-2.4,0.6-5.8,1.1-9.1,1.1c-6.9,0-10.7-4-10.7-10.9v-3.3c0-6.7,3.5-10.9,10.7-10.9
			c0.9,0,2.3,0.1,3.5,0.3v-7.4c0-0.5,0.4-0.9,0.9-0.9h5.2c0.5,0,0.9,0.4,0.9,0.9v29.9C384.6,57.3,384.4,57.6,383.3,57.8z
			 M377.7,39.7c-1-0.1-2.5-0.2-3.5-0.2c-3,0-3.8,2.2-3.8,5.2V48c0,3,0.8,5.2,3.8,5.2c1.4,0,2.7-0.1,3.5-0.3V39.7z"/>
		<linearGradient id="SVGID_17_" gradientUnits="userSpaceOnUse" x1="398.7159" y1="66.0423" x2="398.7159" y2="-4.0594">
			<stop  offset="0" style="stop-color:#EEEFEE"/>
			<stop  offset="1" style="stop-color:#FFFFFF"/>
		</linearGradient>
		<path fill="url(#SVGID_17_)" d="M407.7,58.5h-4.8c-0.5,0-0.9-0.4-0.9-0.9V57c-1.7,1.2-3.4,1.9-5.9,1.9c-3.7,0-7.3-1.8-7.3-7.3
			v-0.4c0-5,3.2-7.2,10.5-7.2h2.3v-1.5c0-2.4-1.2-2.9-3.2-2.9c-2.7,0-5.8,0.2-7.1,0.3h-0.2c-0.4,0-0.8-0.2-0.8-0.8v-3.5
			c0-0.5,0.3-0.8,0.8-0.9c1.6-0.4,4.6-0.9,7.4-0.9c6.1,0,10,2.5,10,8.7v15.2C408.6,58.2,408.2,58.5,407.7,58.5z M401.8,48.1h-2.4
			c-3,0-3.8,1-3.8,3.1v0.4c0,1.8,0.9,2.1,2.7,2.1c1.3,0,2.5-0.4,3.5-0.9V48.1z"/>
		<linearGradient id="SVGID_18_" gradientUnits="userSpaceOnUse" x1="423.7207" y1="66.0419" x2="423.7207" y2="-4.0587">
			<stop  offset="0" style="stop-color:#EEEFEE"/>
			<stop  offset="1" style="stop-color:#FFFFFF"/>
		</linearGradient>
		<path fill="url(#SVGID_18_)" d="M435.4,35.1l-7.2,25.1c-1.3,4.6-3.1,6.9-9.3,6.9c-1.6,0-4.1-0.3-5.2-0.7c-0.5-0.2-0.9-0.3-0.9-0.8
			v-3.5c0-0.5,0.4-0.8,0.9-0.8c0,0,0,0,0.1,0c1.4,0.1,3.9,0.3,5.3,0.3c1.5,0,2.3-0.5,2.8-2.2l0.4-1.3h-0.6c-1.6,0-2.9-0.3-4-4
			l-5.6-19.2c0-0.1,0-0.2,0-0.3c0-0.4,0.3-0.7,0.8-0.7h5.7c0.4,0,0.7,0.4,0.8,0.8l3.8,16c0.1,0.6,0.3,0.8,0.5,0.8h0
			c0.1,0,0.1,0,0.2,0c0.1,0,0.2,0,0.2,0l4-16.8c0.1-0.4,0.4-0.8,0.9-0.8h5.7c0.4,0,0.8,0.3,0.8,0.8C435.4,35,435.4,35,435.4,35.1z"
			/>
		<linearGradient id="SVGID_19_" gradientUnits="userSpaceOnUse" x1="455.6289" y1="66.0432" x2="455.6289" y2="-4.0587">
			<stop  offset="0" style="stop-color:#EEEFEE"/>
			<stop  offset="1" style="stop-color:#FFFFFF"/>
		</linearGradient>
		<path fill="url(#SVGID_19_)" d="M467.3,58.5h-5.6c-0.5,0-0.9-0.4-0.9-0.9V45.4h-10.5v12.3c0,0.5-0.4,0.9-0.9,0.9h-5.6
			c-0.5,0-0.9-0.4-0.9-0.9v-30c0-0.5,0.4-0.8,0.9-0.8h5.6c0.5,0,0.9,0.3,0.9,0.8V39h10.5V27.7c0-0.5,0.4-0.8,0.9-0.8h5.6
			c0.5,0,0.9,0.3,0.9,0.8v30C468.2,58.2,467.8,58.5,467.3,58.5z"/>
		<linearGradient id="SVGID_20_" gradientUnits="userSpaceOnUse" x1="483.7251" y1="66.0423" x2="483.7251" y2="-4.0594">
			<stop  offset="0" style="stop-color:#EEEFEE"/>
			<stop  offset="1" style="stop-color:#FFFFFF"/>
		</linearGradient>
		<path fill="url(#SVGID_20_)" d="M483.7,58.9c-6.9,0-10.7-4.3-10.7-11.1v-3c0-6.8,3.8-11.1,10.7-11.1c6.9,0,10.7,4.3,10.7,11.1v3
			C494.4,54.6,490.7,58.9,483.7,58.9z M487.5,44.9c0-3.5-1.3-5.2-3.8-5.2c-2.5,0-3.8,1.7-3.8,5.2v3c0,3.5,1.4,5.2,3.8,5.2
			c2.5,0,3.8-1.8,3.8-5.2V44.9z"/>
		<linearGradient id="SVGID_21_" gradientUnits="userSpaceOnUse" x1="514.9317" y1="66.0434" x2="514.9317" y2="-4.0604">
			<stop  offset="0" style="stop-color:#EEEFEE"/>
			<stop  offset="1" style="stop-color:#FFFFFF"/>
		</linearGradient>
		<path fill="url(#SVGID_21_)" d="M530.1,58.5H525c-0.5,0-0.9-0.4-0.9-0.9V43.1c0-2.7-0.6-3.5-2.6-3.5c-0.7,0-2,0.2-3.3,0.8
			c0.1,0.9,0.1,1.8,0.1,2.8v14.5c0,0.5-0.4,0.9-0.9,0.9h-5.2c-0.5,0-0.9-0.4-0.9-0.9V43.1c0-2.7-0.5-3.5-2.5-3.5
			c-0.8,0-1.9,0.4-3.2,1.1v17c0,0.5-0.4,0.9-0.9,0.9h-5.2c-0.5,0-0.9-0.4-0.9-0.9V35c0-0.5,0.4-0.9,0.9-0.9h4.9
			c0.5,0,0.9,0.4,0.9,0.9v0.9c1.8-1.2,3.8-2.1,6.3-2.1c2.3,0,3.8,0.6,5,2.1c2.5-1.4,4.2-2.1,6.9-2.1c5.6,0,7.3,3.8,7.3,9.3v14.5
			C531,58.1,530.6,58.5,530.1,58.5z"/>
		<linearGradient id="SVGID_22_" gradientUnits="userSpaceOnUse" x1="546.1611" y1="66.0423" x2="546.1611" y2="-4.0594">
			<stop  offset="0" style="stop-color:#EEEFEE"/>
			<stop  offset="1" style="stop-color:#FFFFFF"/>
		</linearGradient>
		<path fill="url(#SVGID_22_)" d="M555.9,48.5h-13.6v0.1c0,2.4,1,4.6,4.4,4.6c2.7,0,6.5-0.2,8.2-0.4c0,0,0.1,0,0.1,0
			c0.5,0,0.8,0.2,0.8,0.7v3.2c0,0.7-0.2,1-0.9,1.1c-2.7,0.7-5,1-8.7,1c-5.2,0-10.7-2.7-10.7-11v-3c0-6.9,4-11.2,10.8-11.2
			c7,0,10.5,4.8,10.5,11.2v2.5C556.8,48.1,556.5,48.5,555.9,48.5z M550.1,44c0-3.2-1.5-4.7-3.8-4.7c-2.3,0-3.9,1.6-3.9,4.7v0.2h7.8
			V44z"/>
		<linearGradient id="SVGID_23_" gradientUnits="userSpaceOnUse" x1="569.4605" y1="66.0423" x2="569.4605" y2="-4.0594">
			<stop  offset="0" style="stop-color:#EEEFEE"/>
			<stop  offset="1" style="stop-color:#FFFFFF"/>
		</linearGradient>
		<path fill="url(#SVGID_23_)" d="M569.3,58.9c-2.3,0-5.6-0.3-7.8-0.9c-0.5-0.1-0.8-0.5-0.8-1v-3.5c0-0.4,0.3-0.8,0.8-0.8
			c0,0,0.1,0,0.2,0c2.3,0.3,5.9,0.6,7.2,0.6c2,0,2.5-0.6,2.5-1.7c0-0.6-0.4-1.1-1.6-1.8l-5.5-3.2c-2.4-1.4-3.8-3.5-3.8-6.3
			c0-4.3,2.9-6.6,8.7-6.6c3.4,0,5.4,0.4,7.6,1c0.5,0.1,0.8,0.5,0.8,1v3.5c0,0.5-0.3,0.8-0.7,0.8c0,0-0.1,0-0.1,0
			c-1.2-0.2-4.9-0.6-7.1-0.6c-1.7,0-2.3,0.3-2.3,1.2c0,0.6,0.5,1,1.3,1.5l5.3,3c3.5,2,4.3,4.3,4.3,6.6
			C578.4,55.8,575.5,58.9,569.3,58.9z"/>
	</g>
	<g>
		<path fill="#FFFFFF" d="M172.6,88.6h-1.2c-0.3,0-0.5-0.2-0.5-0.5v-7.6h-7.9v7.6c0,0.3-0.2,0.5-0.5,0.5h-1.2
			c-0.3,0-0.5-0.2-0.5-0.5V71.9c0-0.3,0.2-0.5,0.5-0.5h1.2c0.3,0,0.5,0.2,0.5,0.5v6.7h7.9v-6.7c0-0.3,0.2-0.5,0.5-0.5h1.2
			c0.3,0,0.5,0.2,0.5,0.5v16.2C173,88.3,172.8,88.6,172.6,88.6z"/>
		<path fill="#FFFFFF" d="M181.1,88.7c-3.4,0-5.1-2.2-5.1-5.6v-1.7c0-3.4,1.7-5.6,5.1-5.6c3.4,0,5.1,2.2,5.1,5.6v1.7
			C186.2,86.5,184.5,88.7,181.1,88.7z M184.2,81.4c0-2.3-0.9-3.8-3.1-3.8c-2.1,0-3.1,1.5-3.1,3.8v1.7c0,2.3,0.9,3.8,3.1,3.8
			c2.1,0,3.1-1.5,3.1-3.8V81.4z"/>
		<path fill="#FFFFFF" d="M190.8,88.6h-1.2c-0.2,0-0.4-0.2-0.4-0.5V71.7c0-0.2,0.2-0.4,0.4-0.4h1.2c0.2,0,0.4,0.2,0.4,0.4v16.4
			C191.2,88.3,191,88.6,190.8,88.6z"/>
		<path fill="#FFFFFF" d="M196.4,88.6h-1.2c-0.2,0-0.4-0.2-0.4-0.5V71.7c0-0.2,0.2-0.4,0.4-0.4h1.2c0.2,0,0.4,0.2,0.4,0.4v16.4
			C196.8,88.3,196.6,88.6,196.4,88.6z"/>
		<path fill="#FFFFFF" d="M208.5,88.6h-1.1c-0.3,0-0.5-0.2-0.5-0.5v-0.5c-1.1,0.6-2.3,1.1-3.5,1.1c-2,0-3.8-0.9-3.8-3.7v-0.3
			c0-2.5,1.5-3.7,5.5-3.7h1.7v-0.9c0-1.9-0.7-2.6-2.5-2.6c-1.5,0-2.6,0.1-3.5,0.2c0,0-0.1,0-0.1,0c-0.2,0-0.4-0.1-0.4-0.4v-0.8
			c0-0.3,0.2-0.4,0.5-0.4c0.9-0.2,2-0.3,3.6-0.3c3.2,0,4.5,1.6,4.5,4.3v8C209,88.3,208.8,88.6,208.5,88.6z M206.9,82.4h-1.7
			c-2.8,0-3.5,0.6-3.5,2.3V85c0,1.7,0.8,2.1,2.1,2.1c1.1,0,2-0.3,3.1-0.9V82.4z"/>
		<path fill="#FFFFFF" d="M221.3,88.6h-1.1c-0.3,0-0.5-0.2-0.5-0.5v-7.6c0-2.3-0.8-3-2.5-3c-1,0-2,0.4-3.1,0.9v9.7
			c0,0.2-0.2,0.5-0.5,0.5h-1.1c-0.2,0-0.4-0.2-0.4-0.5V76.4c0-0.3,0.2-0.5,0.4-0.5h1.2c0.3,0,0.4,0.2,0.4,0.5v0.4
			c1.3-0.7,2.3-1.1,3.7-1.1c2.8,0,4,1.7,4,4.8v7.6C221.8,88.3,221.6,88.6,221.3,88.6z"/>
		<path fill="#FFFFFF" d="M233.8,88.3c-1.4,0.3-2.8,0.4-4.2,0.4c-3.4,0-5-2.2-5-5.7v-1.7c0-3.6,1.7-5.6,5-5.6c0.7,0,1.8,0.1,2.7,0.2
			v-4.3c0-0.2,0.2-0.4,0.4-0.4h1.2c0.2,0,0.4,0.2,0.4,0.4v16.1C234.2,88.1,234.2,88.3,233.8,88.3z M232.2,77.7
			c-0.8-0.1-2-0.2-2.7-0.2c-2.3,0-3,1.4-3,3.9V83c0,2.5,0.7,3.9,3,3.9c0.8,0,1.9-0.1,2.7-0.1V77.7z"/>
		<path fill="#FFFFFF" d="M241.1,88.7c-0.9,0-2.5-0.1-3.6-0.3c-0.3-0.1-0.5-0.2-0.5-0.5v-0.8c0-0.2,0.2-0.3,0.4-0.3c0,0,0.1,0,0.1,0
			c1.1,0.1,2.8,0.3,3.6,0.3c1.5,0,2.3-0.4,2.3-1.6c0-0.7-0.4-1.1-1.7-1.9l-2.3-1.4c-1.4-0.9-2.3-1.8-2.3-3.3c0-2.4,1.8-3.1,4.2-3.1
			c1.3,0,2.5,0.1,3.6,0.3c0.3,0,0.4,0.2,0.4,0.5v0.8c0,0.3-0.2,0.4-0.4,0.4c0,0,0,0-0.1,0c-0.8-0.1-2.3-0.2-3.6-0.2
			c-1.3,0-2.1,0.2-2.1,1.3c0,0.7,0.5,1.1,1.6,1.7l2.3,1.4c1.9,1.1,2.5,2.1,2.5,3.5C245.4,87.7,243.7,88.7,241.1,88.7z"/>
		<path fill="#FFFFFF" d="M257.4,82.9h-7.7v0.3c0,2.7,1.1,3.8,3.2,3.8c1.3,0,3-0.1,4.1-0.3c0,0,0.1,0,0.1,0c0.2,0,0.4,0.1,0.4,0.3
			v0.8c0,0.3-0.1,0.5-0.5,0.5c-1.3,0.3-2.6,0.4-4.1,0.4c-2.6,0-5.2-1.2-5.2-5.5v-2.1c0-3.3,1.8-5.4,5.1-5.4c3.4,0,5.1,2.1,5.1,5.4
			v1.2C257.9,82.7,257.7,82.9,257.4,82.9z M255.8,81.1c0-2.6-1-3.6-3-3.6c-2,0-3.1,1.1-3.1,3.6v0.2h6.1V81.1z"/>
		<path fill="#FFFFFF" d="M275.5,88.6h-1.1c-0.3,0-0.5-0.2-0.5-0.5v-7.6c0-2.3-1-3-2.5-3c-0.7,0-2.2,0.2-3.2,0.6v9.9
			c0,0.2-0.2,0.5-0.5,0.5h-1.1c-0.2,0-0.4-0.2-0.4-0.5V71.7c0-0.3,0.2-0.5,0.4-0.5h1.2c0.3,0,0.4,0.2,0.4,0.5v4.7
			c1.1-0.5,2.5-0.7,3.5-0.7c2.4,0,4.1,1.4,4.1,4.8v7.6C276,88.3,275.8,88.6,275.5,88.6z"/>
		<path fill="#FFFFFF" d="M288.4,88.6h-1.1c-0.3,0-0.4-0.2-0.4-0.5v-0.4c-1.3,0.7-2.3,1.1-3.7,1.1c-2.8,0-4-1.7-4-4.8v-7.6
			c0-0.3,0.2-0.5,0.5-0.5h1.1c0.3,0,0.5,0.2,0.5,0.5v7.6c0,2.3,0.8,3,2.5,3c1,0,2-0.4,3.1-0.9v-9.7c0-0.2,0.2-0.5,0.5-0.5h1.1
			c0.2,0,0.4,0.2,0.4,0.5v11.7C288.8,88.3,288.6,88.6,288.4,88.6z"/>
		<path fill="#FFFFFF" d="M293.8,73.9h-1.2c-0.3,0-0.5-0.2-0.5-0.5v-1.8c0-0.3,0.2-0.5,0.5-0.5h1.2c0.3,0,0.5,0.2,0.5,0.5v1.8
			C294.3,73.7,294,73.9,293.8,73.9z M293.8,88.6h-1.1c-0.3,0-0.5-0.2-0.5-0.5V76.4c0-0.3,0.2-0.5,0.5-0.5h1.1c0.3,0,0.5,0.2,0.5,0.5
			v11.7C294.2,88.3,294,88.6,293.8,88.6z"/>
		<path fill="#FFFFFF" d="M305.5,88.6h-6.9c-1,0-1.4-0.6-1.4-1.3v-0.4c0-0.6,0.1-1,0.5-1.5l5.9-7.4c0-0.1,0.1-0.1,0.1-0.2
			c0-0.1,0-0.2-0.2-0.2h-5.6c-0.3,0-0.5-0.2-0.5-0.5v-0.8c0-0.3,0.2-0.5,0.5-0.5h6.8c0.9,0,1.3,0.4,1.3,1.1v0.6
			c0,0.5-0.2,0.8-0.5,1.3l-6.1,7.6c-0.1,0.1-0.1,0.2-0.1,0.3c0,0.1,0,0.2,0.2,0.2h6.1c0.3,0,0.5,0.2,0.5,0.5v0.8
			C306,88.3,305.8,88.6,305.5,88.6z"/>
		<path fill="#FFFFFF" d="M317.6,82.9h-7.7v0.3c0,2.7,1.1,3.8,3.2,3.8c1.3,0,3-0.1,4.1-0.3c0,0,0.1,0,0.1,0c0.2,0,0.4,0.1,0.4,0.3
			v0.8c0,0.3-0.1,0.5-0.5,0.5c-1.3,0.3-2.6,0.4-4.1,0.4c-2.6,0-5.2-1.2-5.2-5.5v-2.1c0-3.3,1.8-5.4,5.1-5.4c3.4,0,5.1,2.1,5.1,5.4
			v1.2C318,82.7,317.9,82.9,317.6,82.9z M316,81.1c0-2.6-1-3.6-3-3.6c-2,0-3.1,1.1-3.1,3.6v0.2h6.1V81.1z"/>
		<path fill="#FFFFFF" d="M330,88.6h-1.1c-0.3,0-0.5-0.2-0.5-0.5v-7.6c0-2.3-0.8-3-2.5-3c-1,0-2,0.4-3.1,0.9v9.7
			c0,0.2-0.2,0.5-0.5,0.5h-1.1c-0.2,0-0.4-0.2-0.4-0.5V76.4c0-0.3,0.2-0.5,0.4-0.5h1.1c0.3,0,0.4,0.2,0.4,0.5v0.4
			c1.3-0.7,2.3-1.1,3.7-1.1c2.8,0,4,1.7,4,4.8v7.6C330.5,88.3,330.3,88.6,330,88.6z"/>
		<path fill="#FFFFFF" d="M349,76.4l-3.1,11c-0.3,1-1.1,1.3-2.1,1.3c-1,0-1.8-0.3-2.1-1.3l-3.1-11c0-0.1,0-0.1,0-0.2
			c0-0.2,0.1-0.4,0.4-0.4h1.3c0.2,0,0.3,0.1,0.4,0.4l2.6,10c0.1,0.6,0.3,0.7,0.5,0.7c0.2,0,0.3-0.1,0.5-0.7l2.6-10
			c0.1-0.3,0.3-0.4,0.4-0.4h1.3c0.2,0,0.4,0.2,0.4,0.4C349,76.3,349,76.4,349,76.4z"/>
		<path fill="#FFFFFF" d="M355.7,88.7c-3.4,0-5.1-2.2-5.1-5.6v-1.7c0-3.4,1.7-5.6,5.1-5.6c3.4,0,5.1,2.2,5.1,5.6v1.7
			C360.8,86.5,359.1,88.7,355.7,88.7z M358.8,81.4c0-2.3-0.9-3.8-3.1-3.8c-2.1,0-3.1,1.5-3.1,3.8v1.7c0,2.3,0.9,3.8,3.1,3.8
			c2.1,0,3.1-1.5,3.1-3.8V81.4z"/>
		<path fill="#FFFFFF" d="M368.2,88.7c-3.4,0-5.1-2.2-5.1-5.6v-1.7c0-3.4,1.7-5.6,5.1-5.6c3.4,0,5.1,2.2,5.1,5.6v1.7
			C373.4,86.5,371.6,88.7,368.2,88.7z M371.3,81.4c0-2.3-0.9-3.8-3.1-3.8c-2.1,0-3.1,1.5-3.1,3.8v1.7c0,2.3,0.9,3.8,3.1,3.8
			c2.1,0,3.1-1.5,3.1-3.8V81.4z"/>
		<path fill="#FFFFFF" d="M381.3,77.5c-1.1,0-2,0.3-3.2,1v9.6c0,0.2-0.2,0.5-0.5,0.5h-1.1c-0.2,0-0.4-0.2-0.4-0.5V76.4
			c0-0.3,0.2-0.5,0.4-0.5h1.1c0.3,0,0.4,0.2,0.4,0.5v0.5c1.2-0.8,2.2-1.1,3.2-1.1c0.3,0,0.5,0.1,0.5,0.4v0.9
			C381.8,77.3,381.6,77.5,381.3,77.5z"/>
		<path fill="#FFFFFF" d="M398.9,82.9h-7.7v0.3c0,2.7,1.1,3.8,3.2,3.8c1.3,0,3-0.1,4.1-0.3c0,0,0.1,0,0.1,0c0.2,0,0.4,0.1,0.4,0.3
			v0.8c0,0.3-0.1,0.5-0.5,0.5c-1.3,0.3-2.6,0.4-4.1,0.4c-2.6,0-5.2-1.2-5.2-5.5v-2.1c0-3.3,1.8-5.4,5.1-5.4c3.4,0,5.1,2.1,5.1,5.4
			v1.2C399.4,82.7,399.2,82.9,398.9,82.9z M397.3,81.1c0-2.6-1-3.6-3-3.6c-2,0-3.1,1.1-3.1,3.6v0.2h6.1V81.1z"/>
		<path fill="#FFFFFF" d="M411.5,82.9h-7.7v0.3c0,2.7,1.1,3.8,3.2,3.8c1.3,0,3-0.1,4.1-0.3c0,0,0.1,0,0.1,0c0.2,0,0.4,0.1,0.4,0.3
			v0.8c0,0.3-0.1,0.5-0.5,0.5c-1.3,0.3-2.6,0.4-4.1,0.4c-2.7,0-5.2-1.2-5.2-5.5v-2.1c0-3.3,1.8-5.4,5.1-5.4c3.4,0,5.1,2.1,5.1,5.4
			v1.2C411.9,82.7,411.7,82.9,411.5,82.9z M409.9,81.1c0-2.6-1-3.6-3-3.6c-2,0-3.1,1.1-3.1,3.6v0.2h6.1V81.1z"/>
		<path fill="#FFFFFF" d="M423.9,88.6h-1.1c-0.3,0-0.5-0.2-0.5-0.5v-7.6c0-2.3-0.8-3-2.5-3c-1,0-2,0.4-3.1,0.9v9.7
			c0,0.2-0.2,0.5-0.5,0.5h-1.1c-0.2,0-0.4-0.2-0.4-0.5V76.4c0-0.3,0.2-0.5,0.4-0.5h1.2c0.3,0,0.4,0.2,0.4,0.5v0.4
			c1.3-0.7,2.3-1.1,3.7-1.1c2.8,0,4,1.7,4,4.8v7.6C424.4,88.3,424.1,88.6,423.9,88.6z"/>
		<path fill="#FFFFFF" d="M445,88.6h-1.2c-0.3,0-0.5-0.2-0.5-0.5v-7.6h-7.9v7.6c0,0.3-0.2,0.5-0.5,0.5h-1.2c-0.2,0-0.5-0.2-0.5-0.5
			V71.9c0-0.3,0.2-0.5,0.5-0.5h1.2c0.3,0,0.5,0.2,0.5,0.5v6.7h7.9v-6.7c0-0.3,0.2-0.5,0.5-0.5h1.2c0.3,0,0.5,0.2,0.5,0.5v16.2
			C445.5,88.3,445.2,88.6,445,88.6z"/>
		<path fill="#FFFFFF" d="M453.5,88.7c-3.4,0-5.1-2.2-5.1-5.6v-1.7c0-3.4,1.7-5.6,5.1-5.6c3.4,0,5.1,2.2,5.1,5.6v1.7
			C458.6,86.5,456.9,88.7,453.5,88.7z M456.6,81.4c0-2.3-0.9-3.8-3.1-3.8c-2.1,0-3.1,1.5-3.1,3.8v1.7c0,2.3,0.9,3.8,3.1,3.8
			c2.1,0,3.1-1.5,3.1-3.8V81.4z"/>
		<path fill="#FFFFFF" d="M463.2,88.6H462c-0.2,0-0.4-0.2-0.4-0.5V71.7c0-0.2,0.2-0.4,0.4-0.4h1.2c0.2,0,0.4,0.2,0.4,0.4v16.4
			C463.6,88.3,463.4,88.6,463.2,88.6z"/>
		<path fill="#FFFFFF" d="M468.8,88.6h-1.2c-0.2,0-0.4-0.2-0.4-0.5V71.7c0-0.2,0.2-0.4,0.4-0.4h1.2c0.2,0,0.4,0.2,0.4,0.4v16.4
			C469.2,88.3,469.1,88.6,468.8,88.6z"/>
		<path fill="#FFFFFF" d="M480.9,88.6h-1.1c-0.3,0-0.5-0.2-0.5-0.5v-0.5c-1.1,0.6-2.3,1.1-3.5,1.1c-2,0-3.8-0.9-3.8-3.7v-0.3
			c0-2.5,1.5-3.7,5.5-3.7h1.7v-0.9c0-1.9-0.7-2.6-2.5-2.6c-1.5,0-2.6,0.1-3.5,0.2c0,0-0.1,0-0.1,0c-0.2,0-0.4-0.1-0.4-0.4v-0.8
			c0-0.3,0.2-0.4,0.5-0.4c0.9-0.2,2-0.3,3.6-0.3c3.2,0,4.5,1.6,4.5,4.3v8C481.4,88.3,481.2,88.6,480.9,88.6z M479.4,82.4h-1.7
			c-2.8,0-3.5,0.6-3.5,2.3V85c0,1.7,0.8,2.1,2.1,2.1c1.1,0,2-0.3,3.1-0.9V82.4z"/>
		<path fill="#FFFFFF" d="M493.8,88.6h-1.1c-0.3,0-0.5-0.2-0.5-0.5v-7.6c0-2.3-0.8-3-2.5-3c-1,0-2,0.4-3.1,0.9v9.7
			c0,0.2-0.2,0.5-0.5,0.5H485c-0.2,0-0.4-0.2-0.4-0.5V76.4c0-0.3,0.2-0.5,0.4-0.5h1.2c0.2,0,0.4,0.2,0.4,0.5v0.4
			c1.3-0.7,2.3-1.1,3.7-1.1c2.8,0,4,1.7,4,4.8v7.6C494.2,88.3,494,88.6,493.8,88.6z"/>
		<path fill="#FFFFFF" d="M506.2,88.3c-1.4,0.3-2.8,0.4-4.2,0.4c-3.4,0-5-2.2-5-5.7v-1.7c0-3.6,1.7-5.6,5-5.6c0.7,0,1.8,0.1,2.7,0.2
			v-4.3c0-0.2,0.2-0.4,0.4-0.4h1.2c0.2,0,0.4,0.2,0.4,0.4v16.1C506.7,88.1,506.6,88.3,506.2,88.3z M504.6,77.7
			c-0.8-0.1-2-0.2-2.7-0.2c-2.3,0-3,1.4-3,3.9V83c0,2.5,0.7,3.9,3,3.9c0.8,0,1.9-0.1,2.7-0.1V77.7z"/>
		<path fill="#FFFFFF" d="M513.5,88.7c-0.9,0-2.5-0.1-3.6-0.3c-0.3-0.1-0.5-0.2-0.5-0.5v-0.8c0-0.2,0.2-0.3,0.4-0.3c0,0,0.1,0,0.1,0
			c1.1,0.1,2.8,0.3,3.6,0.3c1.5,0,2.3-0.4,2.3-1.6c0-0.7-0.4-1.1-1.7-1.9l-2.3-1.4c-1.4-0.9-2.3-1.8-2.3-3.3c0-2.4,1.8-3.1,4.2-3.1
			c1.3,0,2.5,0.1,3.6,0.3c0.3,0,0.4,0.2,0.4,0.5v0.8c0,0.3-0.2,0.4-0.4,0.4c0,0,0,0-0.1,0c-0.8-0.1-2.3-0.2-3.6-0.2
			c-1.3,0-2.1,0.2-2.1,1.3c0,0.7,0.5,1.1,1.6,1.7l2.3,1.4c1.9,1.1,2.5,2.1,2.5,3.5C517.8,87.7,516.1,88.7,513.5,88.7z"/>
		<path fill="#FFFFFF" d="M529.8,82.9h-7.7v0.3c0,2.7,1.1,3.8,3.2,3.8c1.3,0,3-0.1,4.1-0.3c0,0,0.1,0,0.1,0c0.2,0,0.4,0.1,0.4,0.3
			v0.8c0,0.3-0.1,0.5-0.5,0.5c-1.3,0.3-2.6,0.4-4.1,0.4c-2.6,0-5.2-1.2-5.2-5.5v-2.1c0-3.3,1.8-5.4,5.1-5.4c3.4,0,5.1,2.1,5.1,5.4
			v1.2C530.3,82.7,530.1,82.9,529.8,82.9z M528.2,81.1c0-2.6-1-3.6-3-3.6c-2,0-3.1,1.1-3.1,3.6v0.2h6.1V81.1z"/>
		<path fill="#FFFFFF" d="M543.4,88.7c-0.7,0-1.8-0.1-2.7-0.3v4.2c0,0.2-0.2,0.4-0.4,0.4h-1.2c-0.2,0-0.4-0.2-0.4-0.4V76.8
			c0-0.3,0.1-0.4,0.5-0.5c1.2-0.3,2.8-0.5,4.2-0.5c3.4,0,5,2.2,5,5.7v1.7C548.5,86.7,546.8,88.7,543.4,88.7z M546.4,81.4
			c0-2.4-0.7-4-3-4c-1,0-2,0.1-2.7,0.2v9.1c0.8,0.1,2,0.2,2.7,0.2c2.3,0,3-1.5,3-3.9V81.4z"/>
		<path fill="#FFFFFF" d="M556.4,77.5c-1.1,0-2,0.3-3.2,1v9.6c0,0.2-0.2,0.5-0.5,0.5h-1.1c-0.2,0-0.4-0.2-0.4-0.5V76.4
			c0-0.3,0.2-0.5,0.4-0.5h1.1c0.3,0,0.4,0.2,0.4,0.5v0.5c1.2-0.8,2.2-1.1,3.2-1.1c0.3,0,0.5,0.1,0.5,0.4v0.9
			C556.9,77.3,556.7,77.5,556.4,77.5z"/>
		<path fill="#FFFFFF" d="M560.9,73.9h-1.2c-0.3,0-0.5-0.2-0.5-0.5v-1.8c0-0.3,0.2-0.5,0.5-0.5h1.2c0.3,0,0.5,0.2,0.5,0.5v1.8
			C561.4,73.7,561.2,73.9,560.9,73.9z M560.9,88.6h-1.1c-0.3,0-0.5-0.2-0.5-0.5V76.4c0-0.3,0.2-0.5,0.5-0.5h1.1
			c0.3,0,0.5,0.2,0.5,0.5v11.7C561.3,88.3,561.1,88.6,560.9,88.6z"/>
		<path fill="#FFFFFF" d="M564.1,93.1c-0.5,0-0.8,0-1.2-0.1c-0.3,0-0.4-0.2-0.4-0.4v-0.9c0-0.2,0.2-0.3,0.5-0.3h0.9
			c0.9,0,1.1-0.3,1.1-1.4V76.4c0-0.2,0.2-0.5,0.4-0.5h1.2c0.3,0,0.4,0.2,0.4,0.5V90C567,92.4,566,93.1,564.1,93.1z M566.6,73.9h-1.2
			c-0.2,0-0.5-0.2-0.5-0.4v-1.9c0-0.2,0.2-0.5,0.5-0.5h1.2c0.2,0,0.5,0.2,0.5,0.5v1.9C567.1,73.7,566.8,73.9,566.6,73.9z"/>
		<path fill="#FFFFFF" d="M574.1,88.7c-0.9,0-2.5-0.1-3.6-0.3c-0.3-0.1-0.5-0.2-0.5-0.5v-0.8c0-0.2,0.2-0.3,0.4-0.3c0,0,0.1,0,0.1,0
			c1.1,0.1,2.8,0.3,3.6,0.3c1.5,0,2.3-0.4,2.3-1.6c0-0.7-0.4-1.1-1.7-1.9l-2.3-1.4c-1.4-0.9-2.3-1.8-2.3-3.3c0-2.4,1.8-3.1,4.2-3.1
			c1.3,0,2.5,0.1,3.6,0.3c0.3,0,0.4,0.2,0.4,0.5v0.8c0,0.3-0.2,0.4-0.4,0.4c0,0,0,0-0.1,0c-0.8-0.1-2.3-0.2-3.6-0.2
			c-1.3,0-2.1,0.2-2.1,1.3c0,0.7,0.5,1.1,1.6,1.7l2.3,1.4c1.9,1.1,2.5,2.1,2.5,3.5C578.4,87.7,576.7,88.7,574.1,88.7z"/>
	</g>
</g>
</svg>
