<svg xmlns="http://www.w3.org/2000/svg" width="35" height="51" viewBox="0 0 35 51"><defs><linearGradient id="a" x1="166" x2="166" y1="2149" y2="2098.01" gradientUnits="userSpaceOnUse"><stop offset="0" stop-color="#ed7a27"/><stop offset="1" stop-color="#f39d29"/></linearGradient></defs><path d="M17 25.51a8.19 8.19 0 0 1-6-2.49 8.18 8.18 0 0 1-2.5-6.01c0-2.35.83-4.35 2.5-6.01a8.19 8.19 0 0 1 6-2.49A8.2 8.2 0 0 1 23.01 11a8.18 8.18 0 0 1 2.5 6.01c0 2.35-.84 4.35-2.5 6.01a8.2 8.2 0 0 1-6 2.49zM29.02 4.99A16.38 16.38 0 0 0 17 .01c-4.7 0-8.7 1.66-12.02 4.98A16.38 16.38 0 0 0 0 17.01c0 2.41.37 4.39 1.1 5.94l12.12 25.7c.33.73.84 1.3 1.54 1.72a4.27 4.27 0 0 0 4.48 0c.7-.42 1.23-.99 1.58-1.72l12.09-25.7c.73-1.55 1.1-3.53 1.1-5.94 0-4.69-1.67-8.7-4.99-12.02z"/><path fill="url(#a)" d="M166 2123.51a8.19 8.19 0 0 1-6-2.49 8.18 8.18 0 0 1-2.5-6.01c0-2.35.83-4.35 2.5-6.01a8.19 8.19 0 0 1 6-2.49 8.2 8.2 0 0 1 6.01 2.49 8.18 8.18 0 0 1 2.5 6.01c0 2.35-.84 4.35-2.5 6.01a8.2 8.2 0 0 1-6 2.49zm12.02-20.52a16.38 16.38 0 0 0-12.02-4.98c-4.7 0-8.7 1.66-12.02 4.98a16.38 16.38 0 0 0-4.98 12.02c0 2.41.37 4.39 1.1 5.94l12.12 25.7c.33.73.84 1.3 1.54 1.72a4.27 4.27 0 0 0 4.48 0c.7-.42 1.23-.99 1.58-1.72l12.09-25.7c.73-1.55 1.1-3.53 1.1-5.94 0-4.69-1.67-8.7-4.99-12.02z" transform="translate(-149 -2098)"/></svg>